# xmcd
#
# Track frame offsets:
#	150
#	14202
#	23375
#	38487
#	48950
#	58987
#	71437
#	92915
#	104272
#	112617
#	126682
#	139120
#	148732
#	160785
#	171085
#	189727
#
# Disc length: 2703 seconds
#
# Revision: 4
# Processed by: cddbd v1.5.2PL0 Copyright (c) Steve Scherf et al.
# Submitted via: audiograbber 1.83.01
#
DISCID=de0a8d10
DTITLE=Rosie Flores and Ray Campi - A Little Bit Of Heartache
DYEAR=1990
DGENRE=Country
TTITLE0=This Song Is Just For You
TTITLE1=Separate Ways
TTITLE2=Where Honky Tonk Angels Spread Their Wings
TTITLE3=The Train Kept A-Rollin'
TTITLE4=All I Have To Do Is Dream
TTITLE5=I'm Gonna Wear The Pants
TTITLE6=Bandera Highway
TTITLE7=There Ain't A Cow In Texas
TTITLE8=A Little Bit Of Heartache
TTITLE9=Eighteen Wheels
TTITLE10=If Teardrops Were Pennies
TTITLE11=Joe And Ole Merle
TTITLE12=My Baby's A Doin' Alright
TTITLE13=Living On Love
TTITLE14=Crazy
TTITLE15=Let's Say Goodbye Like We Said Hello
EXTD=YEAR: 1990
EXTT0=
EXTT1=
EXTT2=
EXTT3=
EXTT4=
EXTT5=
EXTT6=
EXTT7=
EXTT8=
EXTT9=
EXTT10=
EXTT11=
EXTT12=
EXTT13=
EXTT14=
EXTT15=
PLAYORDER=
